<svg width="100" height="100" viewBox="0 0 100 100" fill="none" xmlns="http://www.w3.org/2000/svg">
<rect width="100" height="100" fill="#0088FF" fill-opacity="0.8"/>
<path d="M4.9 74.4L16.3 72.7L27.2 69.5L29.8 65.3L28.7 61L26.1 57.8C25.3667 57.3333 24.6 56.9 23.8 56.5C23.0667 56.0333 22.3 55.7 21.5 55.5C20.7667 55.2333 20 55.1333 19.2 55.2C18.4667 55.2 17.7333 55.4333 17 55.9L14.5 57.7L6.2 53.8L3.2 46.1L5.8 33.2L10.4 27.1C10.6 27.5667 11 27.7333 11.6 27.6C12.2 27.4667 12.8 27.2 13.4 26.8C14 26.4 14.5 25.9333 14.9 25.4C15.3 24.8 15.4 24.2667 15.2 23.8C16.3333 23.4667 17.6333 23.1333 19.1 22.8C20.5667 22.4 21.8333 21.8333 22.9 21.1L35.8 18.4L37.9 18.2L39.7 20.3L38.1 24.6L34.4 25.6L29.6 26.1L22.3 29.8L18.9 34.2C17.8333 35.2 17.3 36.3 17.3 37.5C17.3667 38.6333 17.6667 39.8667 18.2 41.2C18.9333 42.7333 19.4667 43.7333 19.8 44.2C20.2 44.6 20.7 44.9667 21.3 45.3L27.2 47.3C27.8667 47.8333 28.4667 48.2667 29 48.6C29.6 48.8667 30.2667 49.0333 31 49.1C31.7333 49.1667 32.7667 49.2333 34.1 49.3C35.5 49.3667 37.2667 49.4667 39.4 49.6C40 50.7333 40.7 51.7333 41.5 52.6C42.3 53.4 43.0667 54.4667 43.8 55.8L45.8 60.3L42.8 70.3L40.4 72.9L35.5 80H33C32.1333 80 31.0667 80.0333 29.8 80.1C28.6 80.1 27.1667 80.1 25.5 80.1C23.8333 80.1 22.3667 80.2667 21.1 80.6C19.8333 80.9333 18.7 81.3 17.7 81.7C16.7 82.0333 15.8333 82.3333 15.1 82.6C14.3667 82.8667 13.7 82.9667 13.1 82.9L9.5 81.8L3.5 82.8L1.4 78.5L2 76L4.9 74.4Z" fill="white"/>
<path d="M70.4 82.15L63.4 83L61.95 80.65C61.95 80.2167 61.6167 80.2333 60.95 80.7C60.7833 80.8 60.6167 80.9667 60.45 81.2C60.2833 81.4333 60.1167 81.6667 59.95 81.9C59.85 82.0333 59.75 82.1667 59.65 82.3C59.55 82.4333 59.45 82.5833 59.35 82.75C58.3167 83.5167 57.25 84.0167 56.15 84.25C55.0833 84.4833 54.1667 84.3333 53.4 83.8C52.8333 83.7333 52.45 83.6 52.25 83.4C52.15 83.3333 52.0167 83.2167 51.85 83.05L48.65 82.85L47.3 82.2L46.05 79.05L46.3 78L45.2 73.6L47.3 70.1L49 68.55C49.6333 68.2167 50.3667 67.95 51.2 67.75C52.0333 67.55 52.8667 67.4167 53.7 67.35C54.5333 67.25 55.3333 67.2333 56.1 67.3C56.8667 67.3333 57.5 67.4333 58 67.6C58 68.1333 58.1667 68.4833 58.5 68.65C58.8333 68.8167 59.4833 69 60.45 69.2C60.7833 68.6333 60.95 67.95 60.95 67.15C60.95 66.3167 60.8 65.45 60.5 64.55L59.7 62C59.4333 61.9 59.0167 61.7333 58.45 61.5C57.9167 61.2333 57.4667 61.0167 57.1 60.85L54.95 61.2L52.75 61.65L52.25 60.85L52.8 59.55L53.15 58.75L53.85 58.6L56.15 58.2L58.2 58.9L60.45 58.55L64.8 59.85L66.65 62.65L67.3 70.6L67.15 73.1L68.25 78.95L68.9 79.25H70.45L71.1 81L70.4 82.15ZM52.05 74C51.8833 74.8667 51.8833 75.6 52.05 76.2C52.25 76.8 52.5667 77.3 53 77.7L53.75 79.25C54.35 79.45 54.9167 79.6 55.45 79.7C55.9833 79.8 56.5333 79.8167 57.1 79.75C57.7 79.65 58.3167 79.4667 58.95 79.2C59.6167 78.9 60.3833 78.4667 61.25 77.9L61.35 75.35L60.45 70.9C59.9833 70.7333 59.5667 70.65 59.2 70.65C58.8667 70.65 58.5333 70.6833 58.2 70.75C57.8 70.85 57.3333 70.9333 56.8 71C56.2667 71.0667 55.7167 71.15 55.15 71.25C54.6167 71.3167 54.1167 71.4167 53.65 71.55C53.2167 71.65 52.9 71.8 52.7 72L52.05 74Z" fill="white"/>
<path d="M97.2285 67.25C97.3285 67.8167 97.3785 68.3167 97.3785 68.75C97.3785 69.15 97.3618 69.55 97.3285 69.95C97.3285 70.3167 97.3452 70.6833 97.3785 71.05C97.4452 71.3833 97.5785 71.75 97.7785 72.15C97.7118 72.2833 97.5452 72.55 97.2785 72.95C97.0452 73.3167 96.8785 73.7 96.7785 74.1C96.7118 74.4667 96.6618 74.75 96.6285 74.95C96.5952 75.15 96.5618 75.2833 96.5285 75.35C96.6285 75.4167 96.7118 75.55 96.7785 75.75C96.8118 75.9167 96.7785 76.1333 96.6785 76.4C96.5785 76.6333 96.3785 76.9667 96.0785 77.4C95.4785 78.2 95.1452 78.8833 95.0785 79.45C95.0118 79.9833 94.8785 80.4 94.6785 80.7C94.6118 80.7667 94.3952 80.8667 94.0285 81C93.6952 81.1333 93.2952 81.3 92.8285 81.5C92.3618 81.6667 91.8952 81.8667 91.4285 82.1C90.9618 82.3333 90.5952 82.5667 90.3285 82.8C89.7618 82.9 89.2618 83.0333 88.8285 83.2C88.3952 83.3667 87.8618 83.4833 87.2285 83.55C86.6285 83.6833 86.0118 83.85 85.3785 84.05C84.7452 84.2167 84.3952 84.3 84.3285 84.3C82.7618 84.3 81.8285 84.35 81.5285 84.45C81.2618 84.55 80.9452 84.6 80.5785 84.6L76.0285 82.95L73.9285 79.9C73.9285 79.1 73.8952 78.4333 73.8285 77.9C73.7952 77.3333 73.7452 76.85 73.6785 76.45C73.6118 76.0167 73.5618 75.6167 73.5285 75.25C73.4952 74.8833 73.4952 74.4667 73.5285 74C73.6285 73.9 73.7785 73.6667 73.9785 73.3C74.1785 72.9 74.3785 72.45 74.5785 71.95C74.8118 71.45 75.0285 70.9333 75.2285 70.4C75.4618 69.8667 75.6285 69.4167 75.7285 69.05C75.9952 68.2833 76.1952 67.6167 76.3285 67.05C76.4618 66.45 76.5618 65.9167 76.6285 65.45C76.8952 65.2833 77.1118 65.1 77.2785 64.9C77.4452 64.7 77.6118 64.5333 77.7785 64.4C79.1452 63.6 80.3285 62.95 81.3285 62.45C82.3285 61.9167 83.2618 61.5833 84.1285 61.45L85.6285 61.35C85.7952 61.3833 85.9452 61.4167 86.0785 61.45C86.2118 61.4833 86.3452 61.5167 86.4785 61.55C86.6785 61.6167 86.8618 61.6667 87.0285 61.7C87.1952 61.7 87.2952 61.7 87.3285 61.7L88.3285 63.25C88.3285 63.55 88.2618 63.8 88.1285 64C87.9952 64.1667 88.1285 64.2833 88.5285 64.35C88.9618 64.45 89.1952 64.5167 89.2285 64.55V64.6C89.7618 64.6 90.3118 64.4833 90.8785 64.25C91.4452 63.9833 92.0118 63.85 92.5785 63.85C92.7118 63.85 92.9452 63.9167 93.2785 64.05C93.6118 64.15 93.9618 64.2833 94.3285 64.45C94.6952 64.6167 95.0285 64.7833 95.3285 64.95C95.6618 65.0833 95.8952 65.1833 96.0285 65.25C95.9618 65.75 95.9785 66.1 96.0785 66.3C96.1785 66.5 96.3118 66.65 96.4785 66.75C96.6452 66.8167 96.7952 66.8833 96.9285 66.95C97.0952 66.9833 97.1952 67.0833 97.2285 67.25ZM88.2785 79.75C88.7785 79.4167 89.2618 78.35 89.7285 76.55C89.9952 75.5833 90.2118 74.8667 90.3785 74.4C90.5785 73.9 90.6785 73.4333 90.6785 73C90.6785 72.2667 90.4285 71.4 89.9285 70.4C89.6618 69.8667 89.4618 69.4167 89.3285 69.05C89.1952 68.6833 89.0952 68.3167 89.0285 67.95C88.7618 67.8167 88.6118 67.6167 88.5785 67.35C88.5785 67.05 88.4452 66.75 88.1785 66.45C87.8452 66.1833 87.6452 66.0833 87.5785 66.15C87.5118 66.2167 87.4452 66.25 87.3785 66.25H86.9285C86.6618 66.25 86.2952 66.3 85.8285 66.4C85.3952 66.5 85.0452 66.7333 84.7785 67.1C84.3785 67.5333 84.0285 67.8833 83.7285 68.15C83.4618 68.3833 83.3118 68.5333 83.2785 68.6C82.9452 69.2333 82.6452 69.7833 82.3785 70.25C82.1118 70.6833 81.8952 71.0333 81.7285 71.3L81.2785 72.35C81.0785 72.85 80.9952 73.5167 81.0285 74.35C81.0952 74.4833 81.1618 74.7833 81.2285 75.25C81.2952 75.6833 81.0952 76.15 80.6285 76.65C80.5285 76.75 80.4285 76.95 80.3285 77.25C80.2285 77.5167 80.1618 77.8333 80.1285 78.2C80.0952 78.5667 80.1285 78.9333 80.2285 79.3C80.3618 79.6667 80.6118 79.9833 80.9785 80.25C81.4452 80.5833 81.9285 80.9167 82.4285 81.25C82.9285 81.55 83.2452 81.7 83.3785 81.7H83.9285C84.1285 81.7 84.3118 81.75 84.4785 81.85L88.2785 79.75Z" fill="white"/>
</svg>
